<svg width="360" height="72" viewBox="0 0 360 72" fill="none" xmlns="http://www.w3.org/2000/svg">
  <defs>
    <linearGradient id="logoGrad" x1="12" y1="12" x2="60" y2="60" gradientUnits="userSpaceOnUse">
      <stop stop-color="#8A7DFF"/>
      <stop offset="1" stop-color="#63E6FF"/>
    </linearGradient>
  </defs>
  <rect width="360" height="72" rx="18" fill="transparent"/>
  <g transform="translate(12 10)">
    <circle cx="26" cy="26" r="24" fill="url(#logoGrad)" opacity="0.18"/>
    <path d="M18.5 17.5C24.7 12.4 33.8 11.8 40.4 15.5C46.4 18.9 50.8 25.8 50.8 33.5C50.8 43.4 42.8 51.5 32.8 51.5C22.8 51.5 14.8 43.4 14.8 33.5C14.8 29.3 16.5 25.5 19.4 22.5" stroke="url(#logoGrad)" stroke-width="4.5" stroke-linecap="round"/>
    <path d="M28.5 16.5L34.8 25.5H22.2L28.5 16.5Z" fill="url(#logoGrad)"/>
    <path d="M38.2 25.6H28.7C26.4 25.6 24.8 27.4 24.8 29.7V41.2C24.8 42.8 26.1 44.1 27.6 44.1H39C40.5 44.1 41.8 42.8 41.8 41.2V29.7C41.8 27.4 40.2 25.6 38.2 25.6Z" fill="#0B1F2E" fill-opacity="0.9"/>
    <path d="M30.1 31.1H36.1" stroke="#63E6FF" stroke-width="2.8" stroke-linecap="round"/>
    <path d="M26.8 36.2H39.8" stroke="#A6F4FF" stroke-width="2.4" stroke-linecap="round" opacity="0.9"/>
  </g>
  <text x="86" y="45" fill="#ECF5FF" font-family="Segoe UI, Arial, sans-serif" font-size="26" font-weight="700" letter-spacing="0.04em">MOONRIVER</text>
  <text x="86" y="59" fill="#9BB1C3" font-family="Segoe UI, Arial, sans-serif" font-size="11" font-weight="600" letter-spacing="0.18em">LAUNCHPAD</text>
</svg>
